<mxfile host="app.diagrams.net" agent="Mozilla/5.0 (Macintosh; Intel Mac OS X 10_15_7) AppleWebKit/605.1.15 (KHTML, like Gecko) Version/18.4 Safari/605.1.15" version="27.0.9">
  <diagram name="Page-1" id="7e0a89b8-554c-2b80-1dc8-d5c74ca68de4">
    <mxGraphModel dx="9760" dy="6710" grid="1" gridSize="10" guides="1" tooltips="1" connect="1" arrows="1" fold="1" page="1" pageScale="1" pageWidth="1654" pageHeight="1169" background="none" math="0" shadow="0" adaptiveColors="simple">
      <root>
        <mxCell id="0" />
        <mxCell id="1" parent="0" />
        <mxCell id="zLGrEd5Hd6QKiJcl3Gt1-2" value="" style="edgeStyle=none;curved=1;rounded=0;orthogonalLoop=1;jettySize=auto;html=1;fontSize=16;startSize=8;endSize=8;" parent="1" source="uc2b7yTE421e2-_fU6o1-4" edge="1">
          <mxGeometry relative="1" as="geometry">
            <mxPoint x="3630" y="3404.8498498498484" as="targetPoint" />
          </mxGeometry>
        </mxCell>
        <mxCell id="zLGrEd5Hd6QKiJcl3Gt1-3" value="" style="edgeStyle=none;curved=1;rounded=0;orthogonalLoop=1;jettySize=auto;html=1;fontSize=16;startSize=8;endSize=8;" parent="1" source="uc2b7yTE421e2-_fU6o1-4" edge="1">
          <mxGeometry relative="1" as="geometry">
            <mxPoint x="3630" y="3404.8498498498484" as="targetPoint" />
          </mxGeometry>
        </mxCell>
        <mxCell id="zLGrEd5Hd6QKiJcl3Gt1-8" value="" style="rounded=0;whiteSpace=wrap;html=1;fillColor=#CCCCCC;fontSize=16;" parent="1" vertex="1">
          <mxGeometry x="6990" y="3510" width="120" height="1330" as="geometry" />
        </mxCell>
        <mxCell id="uc2b7yTE421e2-_fU6o1-4" value="" style="rounded=0;whiteSpace=wrap;html=1;fillColor=#CCCCCC;fontSize=16;" parent="1" vertex="1">
          <mxGeometry x="3620" y="400" width="120" height="6010" as="geometry" />
        </mxCell>
        <mxCell id="zLGrEd5Hd6QKiJcl3Gt1-6" value="" style="rounded=0;whiteSpace=wrap;html=1;fillColor=#CCCCCC;fontSize=16;" parent="1" vertex="1">
          <mxGeometry x="7480" y="400" width="120" height="3150" as="geometry" />
        </mxCell>
        <mxCell id="zLGrEd5Hd6QKiJcl3Gt1-7" value="" style="rounded=0;whiteSpace=wrap;html=1;fillColor=#CCCCCC;direction=south;fontSize=16;" parent="1" vertex="1">
          <mxGeometry x="6990" y="3430" width="490" height="120" as="geometry" />
        </mxCell>
        <mxCell id="zLGrEd5Hd6QKiJcl3Gt1-9" value="" style="rounded=0;whiteSpace=wrap;html=1;fillColor=#CCCCCC;direction=south;fontSize=16;" parent="1" vertex="1">
          <mxGeometry x="3740" y="4720" width="3250" height="120" as="geometry" />
        </mxCell>
        <mxCell id="zLGrEd5Hd6QKiJcl3Gt1-11" value="" style="rounded=0;whiteSpace=wrap;html=1;fillColor=#CCCCCC;direction=south;fontSize=16;" parent="1" vertex="1">
          <mxGeometry x="8450" y="3570" width="1750" height="120" as="geometry" />
        </mxCell>
        <mxCell id="uc2b7yTE421e2-_fU6o1-5" value="" style="rounded=0;whiteSpace=wrap;html=1;fillColor=#CCCCCC;fontSize=16;" parent="1" vertex="1">
          <mxGeometry y="1" width="400" height="6800" as="geometry" />
        </mxCell>
        <mxCell id="zLGrEd5Hd6QKiJcl3Gt1-1" value="" style="rounded=0;whiteSpace=wrap;html=1;fillColor=#CCCCCC;movable=0;resizable=0;rotatable=0;deletable=0;editable=0;locked=1;connectable=0;" parent="1" vertex="1">
          <mxGeometry x="400" width="9820" height="400" as="geometry" />
        </mxCell>
        <mxCell id="zLGrEd5Hd6QKiJcl3Gt1-4" value="" style="rounded=0;whiteSpace=wrap;html=1;fillColor=#CCCCCC;direction=south;fontSize=16;" parent="1" vertex="1">
          <mxGeometry x="400" y="6400" width="9820" height="400" as="geometry" />
        </mxCell>
        <mxCell id="mV87TawOfjtEILETSKFK-4" value="" style="rounded=0;whiteSpace=wrap;html=1;fillColor=#CCCCCC;fontSize=16;" vertex="1" parent="1">
          <mxGeometry x="10220" width="400" height="6800" as="geometry" />
        </mxCell>
      </root>
    </mxGraphModel>
  </diagram>
</mxfile>
